<mxfile host="65bd71144e">
    <diagram id="3_IbKChYlmd3eDV4ek93" name="Page-1">
        <mxGraphModel dx="1631" dy="882" grid="1" gridSize="10" guides="1" tooltips="1" connect="1" arrows="1" fold="1" page="1" pageScale="1" pageWidth="1600" pageHeight="900" math="0" shadow="0">
            <root>
                <mxCell id="0"/>
                <mxCell id="1" parent="0"/>
                <mxCell id="167" value="" style="group" parent="1" vertex="1" connectable="0">
                    <mxGeometry x="10" y="10" width="1580" height="880" as="geometry"/>
                </mxCell>
                <mxCell id="2" value="Setting Data Viewer" style="strokeWidth=1;shadow=0;dashed=0;align=center;html=1;shape=mxgraph.mockup.containers.window;align=left;verticalAlign=top;spacingLeft=8;strokeColor2=#008cff;strokeColor3=#c4c4c4;fontColor=#666666;mainText=;fontSize=17;labelBackgroundColor=none;" parent="167" vertex="1">
                    <mxGeometry width="1580" height="880" as="geometry"/>
                </mxCell>
                <mxCell id="8" value="" style="strokeWidth=1;shadow=0;dashed=0;align=center;html=1;shape=mxgraph.mockup.forms.rrect;rSize=0;strokeColor=#999999;" parent="167" vertex="1">
                    <mxGeometry x="1" y="30" width="190" height="30" as="geometry"/>
                </mxCell>
                <mxCell id="9" value="File" style="strokeColor=inherit;fillColor=inherit;gradientColor=inherit;strokeWidth=1;shadow=0;dashed=0;align=center;html=1;shape=mxgraph.mockup.forms.rrect;rSize=0;fontSize=17;fontColor=#666666;" parent="8" vertex="1">
                    <mxGeometry width="95" height="30" as="geometry"/>
                </mxCell>
                <mxCell id="10" value="Tool" style="strokeColor=inherit;fillColor=inherit;gradientColor=inherit;strokeWidth=1;shadow=0;dashed=0;align=center;html=1;shape=mxgraph.mockup.forms.rrect;rSize=0;fontSize=17;fontColor=#666666;" parent="8" vertex="1">
                    <mxGeometry x="94.82892069171137" width="95" height="30" as="geometry"/>
                </mxCell>
                <mxCell id="37" value="" style="whiteSpace=wrap;html=1;strokeColor=#666666;fontColor=#666666;" parent="167" vertex="1">
                    <mxGeometry x="50" y="190" width="710" height="490" as="geometry"/>
                </mxCell>
                <mxCell id="38" value="" style="whiteSpace=wrap;html=1;" parent="167" vertex="1">
                    <mxGeometry x="820" y="190" width="710" height="490" as="geometry"/>
                </mxCell>
                <mxCell id="39" value="&lt;font color=&quot;#666666&quot;&gt;Original Data View&lt;/font&gt;" style="text;html=1;align=center;verticalAlign=middle;resizable=0;points=[];autosize=1;strokeColor=none;fillColor=none;fontStyle=1;fontSize=40;" parent="167" vertex="1">
                    <mxGeometry x="220" y="410" width="370" height="60" as="geometry"/>
                </mxCell>
                <mxCell id="40" value="&lt;font color=&quot;#666666&quot;&gt;CGAFI Data View&lt;/font&gt;" style="text;html=1;align=center;verticalAlign=middle;resizable=0;points=[];autosize=1;strokeColor=none;fillColor=none;fontStyle=1;fontSize=40;" parent="167" vertex="1">
                    <mxGeometry x="980" y="410" width="350" height="60" as="geometry"/>
                </mxCell>
                <mxCell id="59" value="Drag and drop a folder or files" style="text;html=1;align=center;verticalAlign=middle;resizable=0;points=[];autosize=1;strokeColor=none;fillColor=none;fontSize=30;fontColor=#666666;" parent="167" vertex="1">
                    <mxGeometry x="195" y="470" width="420" height="50" as="geometry"/>
                </mxCell>
                <mxCell id="60" value="Drag and drop a folder or files" style="text;html=1;align=center;verticalAlign=middle;resizable=0;points=[];autosize=1;strokeColor=none;fillColor=none;fontSize=30;fontColor=#666666;" parent="167" vertex="1">
                    <mxGeometry x="945" y="470" width="420" height="50" as="geometry"/>
                </mxCell>
                <mxCell id="295" value="" style="verticalLabelPosition=bottom;shadow=0;dashed=0;align=center;html=1;verticalAlign=top;strokeWidth=1;shape=mxgraph.mockup.graphics.simpleIcon;strokeColor=#999999;fillColor=#ffffff;fontSize=17;aspect=fixed;" vertex="1" parent="167">
                    <mxGeometry x="6" y="70" width="30" height="30" as="geometry"/>
                </mxCell>
                <mxCell id="296" value="" style="verticalLabelPosition=bottom;shadow=0;dashed=0;align=center;html=1;verticalAlign=top;strokeWidth=1;shape=mxgraph.mockup.graphics.simpleIcon;strokeColor=#999999;fillColor=#ffffff;fontSize=17;aspect=fixed;" vertex="1" parent="167">
                    <mxGeometry x="81" y="70" width="30" height="30" as="geometry"/>
                </mxCell>
                <mxCell id="297" value="" style="verticalLabelPosition=bottom;shadow=0;dashed=0;align=center;html=1;verticalAlign=top;strokeWidth=1;shape=mxgraph.mockup.graphics.simpleIcon;strokeColor=#999999;fillColor=#ffffff;fontSize=17;aspect=fixed;" vertex="1" parent="167">
                    <mxGeometry x="156" y="70" width="30" height="30" as="geometry"/>
                </mxCell>
                <mxCell id="311" value="" style="whiteSpace=wrap;html=1;strokeColor=#666666;fontSize=14;fillColor=#FFFFFF;" vertex="1" parent="167">
                    <mxGeometry y="840.02" width="1580" height="39.98" as="geometry"/>
                </mxCell>
                <mxCell id="312" value="&lt;font color=&quot;#666666&quot;&gt;Ready&lt;/font&gt;" style="text;html=1;align=center;verticalAlign=middle;resizable=0;points=[];autosize=1;strokeColor=none;fillColor=none;fontSize=17;" vertex="1" parent="167">
                    <mxGeometry x="6" y="845.01" width="70" height="30" as="geometry"/>
                </mxCell>
                <mxCell id="168" value="" style="group" parent="1" vertex="1" connectable="0">
                    <mxGeometry x="1720" y="10" width="1580" height="881" as="geometry"/>
                </mxCell>
                <mxCell id="25" value="Setting Data Viewer" style="strokeWidth=1;shadow=0;dashed=0;align=center;html=1;shape=mxgraph.mockup.containers.window;align=left;verticalAlign=top;spacingLeft=8;strokeColor2=#008cff;strokeColor3=#c4c4c4;fontColor=#666666;mainText=;fontSize=17;labelBackgroundColor=none;" parent="168" vertex="1">
                    <mxGeometry width="1580" height="880" as="geometry"/>
                </mxCell>
                <mxCell id="26" value="" style="strokeWidth=1;shadow=0;dashed=0;align=center;html=1;shape=mxgraph.mockup.containers.marginRect2;rectMarginTop=32;strokeColor=#666666;gradientColor=none;" parent="168" vertex="1">
                    <mxGeometry y="100" width="1580" height="781" as="geometry"/>
                </mxCell>
                <mxCell id="27" value="AMAT-6x\" style="strokeColor=inherit;fillColor=inherit;gradientColor=inherit;strokeWidth=1;shadow=0;dashed=0;align=left;html=1;shape=mxgraph.mockup.containers.rrect;rSize=0;fontSize=17;fontColor=#666666;gradientColor=none;" parent="26" vertex="1">
                    <mxGeometry width="110" height="25" relative="1" as="geometry">
                        <mxPoint x="10" as="offset"/>
                    </mxGeometry>
                </mxCell>
                <mxCell id="28" value="DSM_GT\" style="strokeWidth=1;shadow=0;dashed=0;align=left;html=1;shape=mxgraph.mockup.containers.rrect;rSize=0;fontSize=17;fontColor=#ffffff;strokeColor=#008cff;fillColor=#008cff;" parent="26" vertex="1">
                    <mxGeometry width="110" height="25" relative="1" as="geometry">
                        <mxPoint x="124" as="offset"/>
                    </mxGeometry>
                </mxCell>
                <mxCell id="30" value="" style="strokeWidth=1;shadow=0;dashed=0;align=center;html=1;shape=mxgraph.mockup.containers.topButton;rSize=5;strokeColor=#008cff;fillColor=#008cff;gradientColor=none;resizeWidth=1;movable=0;deletable=1;" parent="26" vertex="1">
                    <mxGeometry width="1580" height="7" relative="1" as="geometry">
                        <mxPoint y="25" as="offset"/>
                    </mxGeometry>
                </mxCell>
                <mxCell id="58" value="" style="group" parent="26" vertex="1" connectable="0">
                    <mxGeometry x="20" y="100.42821473158551" width="334.23" height="633.7702871410736" as="geometry"/>
                </mxCell>
                <mxCell id="33" value="" style="whiteSpace=wrap;html=1;" parent="58" vertex="1">
                    <mxGeometry width="334.23" height="633.7702871410736" as="geometry"/>
                </mxCell>
                <mxCell id="50" value="" style="group" parent="58" vertex="1" connectable="0">
                    <mxGeometry x="25" y="14.500200293111703" width="228" height="30" as="geometry"/>
                </mxCell>
                <mxCell id="51" value="" style="html=1;verticalLabelPosition=bottom;labelBackgroundColor=#ffffff;verticalAlign=top;shadow=0;dashed=0;strokeWidth=2;shape=mxgraph.ios7.misc.down;strokeColor=#666666;fontSize=12;fontColor=#000000;fillColor=#666666;rotation=-90;" parent="50" vertex="1">
                    <mxGeometry x="-5" y="12.173913043478258" width="15" height="4.869565217391304" as="geometry"/>
                </mxCell>
                <mxCell id="52" value="&lt;font style=&quot;font-size: 14px;&quot;&gt;Robot 1 (Robot1_Data.prm)&lt;/font&gt;" style="text;html=1;align=left;verticalAlign=middle;resizable=0;points=[];autosize=1;strokeColor=none;fillColor=none;fontSize=12;fontColor=#000000;" parent="50" vertex="1">
                    <mxGeometry x="28" width="200" height="30" as="geometry"/>
                </mxCell>
                <mxCell id="90" value="" style="group" parent="58" vertex="1" connectable="0">
                    <mxGeometry x="25" y="107.25300928187573" width="198" height="30" as="geometry"/>
                </mxCell>
                <mxCell id="91" value="" style="html=1;verticalLabelPosition=bottom;labelBackgroundColor=#ffffff;verticalAlign=top;shadow=0;dashed=0;strokeWidth=2;shape=mxgraph.ios7.misc.down;strokeColor=#666666;fontSize=12;fontColor=#000000;fillColor=#666666;rotation=-90;" parent="90" vertex="1">
                    <mxGeometry x="-5" y="12.173913043478258" width="15" height="4.869565217391304" as="geometry"/>
                </mxCell>
                <mxCell id="92" value="&lt;font style=&quot;font-size: 14px;&quot;&gt;Port 1 (Port1_Data.prm)&lt;/font&gt;" style="text;html=1;align=left;verticalAlign=middle;resizable=0;points=[];autosize=1;strokeColor=none;fillColor=none;fontSize=12;fontColor=#000000;" parent="90" vertex="1">
                    <mxGeometry x="28" width="170" height="30" as="geometry"/>
                </mxCell>
                <mxCell id="84" value="" style="group" parent="58" vertex="1" connectable="0">
                    <mxGeometry x="25" y="78.00207295228773" width="238" height="30" as="geometry"/>
                </mxCell>
                <mxCell id="85" value="" style="html=1;verticalLabelPosition=bottom;labelBackgroundColor=#ffffff;verticalAlign=top;shadow=0;dashed=0;strokeWidth=2;shape=mxgraph.ios7.misc.down;strokeColor=#666666;fontSize=12;fontColor=#000000;fillColor=#666666;rotation=-90;" parent="84" vertex="1">
                    <mxGeometry x="-5" y="12.173913043478258" width="15" height="4.869565217391304" as="geometry"/>
                </mxCell>
                <mxCell id="86" value="&lt;font style=&quot;font-size: 14px;&quot;&gt;Aligner 1 (Aligner1_Data.prm)&lt;/font&gt;" style="text;html=1;align=left;verticalAlign=middle;resizable=0;points=[];autosize=1;strokeColor=none;fillColor=none;fontSize=12;fontColor=#000000;" parent="84" vertex="1">
                    <mxGeometry x="28" width="210" height="30" as="geometry"/>
                </mxCell>
                <mxCell id="81" value="" style="group" parent="58" vertex="1" connectable="0">
                    <mxGeometry x="25" y="46.75113662269972" width="228" height="30" as="geometry"/>
                </mxCell>
                <mxCell id="82" value="" style="html=1;verticalLabelPosition=bottom;labelBackgroundColor=#ffffff;verticalAlign=top;shadow=0;dashed=0;strokeWidth=2;shape=mxgraph.ios7.misc.down;strokeColor=#666666;fontSize=12;fontColor=#000000;fillColor=#666666;rotation=-90;" parent="81" vertex="1">
                    <mxGeometry x="-5" y="12.173913043478258" width="15" height="4.869565217391304" as="geometry"/>
                </mxCell>
                <mxCell id="83" value="&lt;font style=&quot;font-size: 14px;&quot;&gt;Robot 2&amp;nbsp;&lt;/font&gt;&lt;span style=&quot;font-size: 14px;&quot;&gt;(Robot2_Data.prm)&lt;/span&gt;" style="text;html=1;align=left;verticalAlign=middle;resizable=0;points=[];autosize=1;strokeColor=none;fillColor=none;fontSize=12;fontColor=#000000;" parent="81" vertex="1">
                    <mxGeometry x="28" width="200" height="30" as="geometry"/>
                </mxCell>
                <mxCell id="87" value="" style="group" parent="58" vertex="1" connectable="0">
                    <mxGeometry x="25" y="136.50394561146373" width="198" height="30" as="geometry"/>
                </mxCell>
                <mxCell id="88" value="" style="html=1;verticalLabelPosition=bottom;labelBackgroundColor=#ffffff;verticalAlign=top;shadow=0;dashed=0;strokeWidth=2;shape=mxgraph.ios7.misc.down;strokeColor=#666666;fontSize=12;fontColor=#000000;fillColor=#666666;rotation=-90;" parent="87" vertex="1">
                    <mxGeometry x="-5" y="12.173913043478258" width="15" height="4.869565217391304" as="geometry"/>
                </mxCell>
                <mxCell id="89" value="&lt;font style=&quot;font-size: 14px;&quot;&gt;Port 2 (Port2_Data.prm)&lt;/font&gt;" style="text;html=1;align=left;verticalAlign=middle;resizable=0;points=[];autosize=1;strokeColor=none;fillColor=none;fontSize=12;fontColor=#000000;" parent="87" vertex="1">
                    <mxGeometry x="28" width="170" height="30" as="geometry"/>
                </mxCell>
                <mxCell id="54" value="" style="group" parent="58" vertex="1" connectable="0">
                    <mxGeometry x="50" y="349.4872197796234" width="185" height="30" as="geometry"/>
                </mxCell>
                <mxCell id="55" value="&lt;font style=&quot;font-size: 14px;&quot;&gt;Purge data (DPRG)&lt;/font&gt;" style="text;html=1;align=left;verticalAlign=middle;resizable=0;points=[];autosize=1;strokeColor=none;fillColor=none;fontSize=12;fontColor=#000000;" parent="54" vertex="1">
                    <mxGeometry x="35" width="150" height="30" as="geometry"/>
                </mxCell>
                <mxCell id="56" value="" style="html=1;verticalLabelPosition=bottom;labelBackgroundColor=#ffffff;verticalAlign=top;shadow=0;dashed=0;strokeWidth=2;shape=mxgraph.ios7.misc.down;strokeColor=#666666;fontSize=12;fontColor=#000000;fillColor=#666666;rotation=0;" parent="54" vertex="1">
                    <mxGeometry y="12.561739130434486" width="15" height="4.869565217391304" as="geometry"/>
                </mxCell>
                <mxCell id="42" value="" style="group" parent="58" vertex="1" connectable="0">
                    <mxGeometry x="21" y="164.23383325191313" width="202" height="30" as="geometry"/>
                </mxCell>
                <mxCell id="43" value="" style="html=1;verticalLabelPosition=bottom;labelBackgroundColor=#ffffff;verticalAlign=top;shadow=0;dashed=0;strokeWidth=2;shape=mxgraph.ios7.misc.down;strokeColor=#666666;fontSize=12;fontColor=#000000;fillColor=#666666;rotation=0;" parent="42" vertex="1">
                    <mxGeometry y="11.686956521739129" width="15" height="4.869565217391304" as="geometry"/>
                </mxCell>
                <mxCell id="44" value="&lt;font style=&quot;font-size: 14px;&quot;&gt;Port 3&lt;/font&gt;&lt;span style=&quot;font-size: 14px;&quot;&gt;&amp;nbsp;(Port3_Data.prm)&lt;/span&gt;" style="text;html=1;align=left;verticalAlign=middle;resizable=0;points=[];autosize=1;strokeColor=none;fillColor=none;fontSize=12;fontColor=#000000;" parent="42" vertex="1">
                    <mxGeometry x="32" width="170" height="30" as="geometry"/>
                </mxCell>
                <mxCell id="95" value="&lt;font style=&quot;font-size: 14px;&quot;&gt;Front&lt;/font&gt;" style="text;html=1;align=left;verticalAlign=middle;resizable=0;points=[];autosize=1;strokeColor=none;fillColor=none;fontSize=12;fontColor=#000000;" parent="58" vertex="1">
                    <mxGeometry x="110" y="380.25920479835" width="60" height="30" as="geometry"/>
                </mxCell>
                <mxCell id="97" value="&lt;font style=&quot;font-size: 14px;&quot;&gt;Back&lt;/font&gt;" style="text;html=1;align=left;verticalAlign=middle;resizable=0;points=[];autosize=1;strokeColor=none;fillColor=none;fontSize=12;fontColor=#000000;" parent="58" vertex="1">
                    <mxGeometry x="110" y="409.51014112793797" width="50" height="30" as="geometry"/>
                </mxCell>
                <mxCell id="98" value="&lt;font style=&quot;font-size: 14px;&quot;&gt;Stage data (DSTG)&lt;/font&gt;" style="text;html=1;align=left;verticalAlign=middle;resizable=0;points=[];autosize=1;strokeColor=none;fillColor=none;fontSize=12;fontColor=#000000;" parent="58" vertex="1">
                    <mxGeometry x="86" y="190.12811865602797" width="140" height="30" as="geometry"/>
                </mxCell>
                <mxCell id="99" value="&lt;span style=&quot;font-size: 14px;&quot;&gt;System data (DEQU)&lt;/span&gt;" style="text;html=1;align=left;verticalAlign=middle;resizable=0;points=[];autosize=1;strokeColor=none;fillColor=none;fontSize=12;fontColor=#000000;" parent="58" vertex="1">
                    <mxGeometry x="86" y="223.27917982956103" width="150" height="30" as="geometry"/>
                </mxCell>
                <mxCell id="100" value="&lt;span style=&quot;font-size: 14px;&quot;&gt;Initialization data (DRCI)&lt;/span&gt;" style="text;html=1;align=left;verticalAlign=middle;resizable=0;points=[];autosize=1;strokeColor=none;fillColor=none;fontSize=12;fontColor=#000000;" parent="58" vertex="1">
                    <mxGeometry x="86" y="257.40527221408036" width="180" height="30" as="geometry"/>
                </mxCell>
                <mxCell id="102" value="&lt;span style=&quot;font-size: 14px;&quot;&gt;Maintenance data (DMNT)&lt;/span&gt;" style="text;html=1;align=left;verticalAlign=middle;resizable=0;points=[];autosize=1;strokeColor=none;fillColor=none;fontSize=12;fontColor=#000000;" parent="58" vertex="1">
                    <mxGeometry x="86" y="320.23628345003544" width="190" height="30" as="geometry"/>
                </mxCell>
                <mxCell id="101" value="&lt;span style=&quot;font-size: 14px;&quot;&gt;Normal operation data (DRCS)&lt;/span&gt;" style="text;html=1;align=left;verticalAlign=middle;resizable=0;points=[];autosize=1;strokeColor=none;fillColor=none;fontSize=12;fontColor=#000000;" parent="58" vertex="1">
                    <mxGeometry x="86" y="289.03528469847487" width="210" height="30" as="geometry"/>
                </mxCell>
                <mxCell id="106" value="&lt;font color=&quot;#ffffff&quot; style=&quot;font-size: 14px;&quot;&gt;Aproc setting (aproc.ini.prm)&lt;/font&gt;" style="text;html=1;align=left;verticalAlign=middle;resizable=0;points=[];autosize=1;strokeColor=none;fillColor=#007FFF;fontSize=12;fontColor=#000000;" parent="58" vertex="1">
                    <mxGeometry x="55" y="448.51138956738873" width="200" height="30" as="geometry"/>
                </mxCell>
                <mxCell id="107" value="&lt;span style=&quot;font-size: 14px;&quot;&gt;Aproc configuration (aproc.cfg.prm)&lt;/span&gt;" style="text;html=1;align=left;verticalAlign=middle;resizable=0;points=[];autosize=1;strokeColor=none;fillColor=none;fontSize=12;fontColor=#000000;" parent="58" vertex="1">
                    <mxGeometry x="55" y="481.6624507409218" width="240" height="30" as="geometry"/>
                </mxCell>
                <mxCell id="108" value="&lt;span style=&quot;font-size: 14px;&quot;&gt;Setting teaching position (pos.dat.prm)&lt;/span&gt;" style="text;html=1;align=left;verticalAlign=middle;resizable=0;points=[];autosize=1;strokeColor=none;fillColor=none;fontSize=12;fontColor=#000000;" parent="58" vertex="1">
                    <mxGeometry x="55" y="515.7885431254413" width="260" height="30" as="geometry"/>
                </mxCell>
                <mxCell id="109" value="Original Data View" style="text;html=1;align=left;verticalAlign=middle;resizable=0;points=[];autosize=1;strokeColor=none;fillColor=none;fontSize=20;fontColor=#666666;fontStyle=1" parent="26" vertex="1">
                    <mxGeometry x="1338" y="42" width="200" height="40" as="geometry"/>
                </mxCell>
                <mxCell id="171" value="" style="shape=table;html=1;whiteSpace=wrap;startSize=0;container=1;collapsible=0;childLayout=tableLayout;strokeWidth=2;" vertex="1" parent="26">
                    <mxGeometry x="385.62" y="100.42821473158551" width="1139" height="633.7702871410736" as="geometry"/>
                </mxCell>
                <mxCell id="172" value="" style="shape=tableRow;horizontal=0;startSize=0;swimlaneHead=0;swimlaneBody=0;top=0;left=0;bottom=0;right=0;collapsible=0;dropTarget=0;fillColor=none;points=[[0,0.5],[1,0.5]];portConstraint=eastwest;" vertex="1" parent="171">
                    <mxGeometry width="1139" height="70" as="geometry"/>
                </mxCell>
                <mxCell id="173" value="&lt;font style=&quot;font-size: 14px;&quot;&gt;No&lt;/font&gt;" style="shape=partialRectangle;html=1;whiteSpace=wrap;connectable=0;fillColor=none;top=0;left=0;bottom=0;right=0;overflow=hidden;fontStyle=1" vertex="1" parent="172">
                    <mxGeometry width="54" height="70" as="geometry">
                        <mxRectangle width="54" height="70" as="alternateBounds"/>
                    </mxGeometry>
                </mxCell>
                <mxCell id="174" value="&lt;font style=&quot;font-size: 14px;&quot;&gt;Items&lt;/font&gt;" style="shape=partialRectangle;html=1;whiteSpace=wrap;connectable=0;fillColor=none;top=0;left=0;bottom=0;right=0;overflow=hidden;fontStyle=1" vertex="1" parent="172">
                    <mxGeometry x="54" width="280" height="70" as="geometry">
                        <mxRectangle width="280" height="70" as="alternateBounds"/>
                    </mxGeometry>
                </mxCell>
                <mxCell id="181" value="&lt;font style=&quot;font-size: 14px;&quot;&gt;Value&lt;/font&gt;" style="shape=partialRectangle;html=1;whiteSpace=wrap;connectable=0;fillColor=none;top=0;left=0;bottom=0;right=0;overflow=hidden;fontStyle=1" vertex="1" parent="172">
                    <mxGeometry x="334" width="300" height="70" as="geometry">
                        <mxRectangle width="300" height="70" as="alternateBounds"/>
                    </mxGeometry>
                </mxCell>
                <mxCell id="184" value="&lt;font style=&quot;font-size: 14px;&quot;&gt;Description&lt;/font&gt;" style="shape=partialRectangle;html=1;whiteSpace=wrap;connectable=0;fillColor=none;top=0;left=0;bottom=0;right=0;overflow=hidden;fontStyle=1" vertex="1" parent="172">
                    <mxGeometry x="634" width="505" height="70" as="geometry">
                        <mxRectangle width="505" height="70" as="alternateBounds"/>
                    </mxGeometry>
                </mxCell>
                <mxCell id="175" value="" style="shape=tableRow;horizontal=0;startSize=0;swimlaneHead=0;swimlaneBody=0;top=0;left=0;bottom=0;right=0;collapsible=0;dropTarget=0;fillColor=none;points=[[0,0.5],[1,0.5]];portConstraint=eastwest;" vertex="1" parent="171">
                    <mxGeometry y="70" width="1139" height="68" as="geometry"/>
                </mxCell>
                <mxCell id="176" value="1" style="shape=partialRectangle;html=1;whiteSpace=wrap;connectable=0;fillColor=none;top=0;left=0;bottom=0;right=0;overflow=hidden;fontSize=14;" vertex="1" parent="175">
                    <mxGeometry width="54" height="68" as="geometry">
                        <mxRectangle width="54" height="68" as="alternateBounds"/>
                    </mxGeometry>
                </mxCell>
                <mxCell id="177" value="&lt;font style=&quot;font-size: 14px;&quot;&gt;DataVersion&lt;/font&gt;" style="shape=partialRectangle;html=1;whiteSpace=wrap;connectable=0;fillColor=none;top=0;left=0;bottom=0;right=0;overflow=hidden;" vertex="1" parent="175">
                    <mxGeometry x="54" width="280" height="68" as="geometry">
                        <mxRectangle width="280" height="68" as="alternateBounds"/>
                    </mxGeometry>
                </mxCell>
                <mxCell id="182" value="&lt;font style=&quot;font-size: 14px;&quot;&gt;4L01&lt;/font&gt;" style="shape=partialRectangle;html=1;whiteSpace=wrap;connectable=0;fillColor=none;top=0;left=0;bottom=0;right=0;overflow=hidden;" vertex="1" parent="175">
                    <mxGeometry x="334" width="300" height="68" as="geometry">
                        <mxRectangle width="300" height="68" as="alternateBounds"/>
                    </mxGeometry>
                </mxCell>
                <mxCell id="185" value="&lt;font style=&quot;border-color: var(--border-color); font-size: 14px;&quot;&gt;Version of software setting&amp;nbsp;&lt;/font&gt;&lt;span style=&quot;border-color: var(--border-color); font-size: 14px;&quot;&gt;data&amp;nbsp;&lt;/span&gt;" style="shape=partialRectangle;html=1;whiteSpace=wrap;connectable=0;fillColor=none;top=0;left=0;bottom=0;right=0;overflow=hidden;align=left;" vertex="1" parent="175">
                    <mxGeometry x="634" width="505" height="68" as="geometry">
                        <mxRectangle width="505" height="68" as="alternateBounds"/>
                    </mxGeometry>
                </mxCell>
                <mxCell id="178" value="" style="shape=tableRow;horizontal=0;startSize=0;swimlaneHead=0;swimlaneBody=0;top=0;left=0;bottom=0;right=0;collapsible=0;dropTarget=0;fillColor=none;points=[[0,0.5],[1,0.5]];portConstraint=eastwest;" vertex="1" parent="171">
                    <mxGeometry y="138" width="1139" height="70" as="geometry"/>
                </mxCell>
                <mxCell id="179" value="&lt;span style=&quot;font-size: 14px;&quot;&gt;2&lt;/span&gt;" style="shape=partialRectangle;html=1;whiteSpace=wrap;connectable=0;fillColor=none;top=0;left=0;bottom=0;right=0;overflow=hidden;" vertex="1" parent="178">
                    <mxGeometry width="54" height="70" as="geometry">
                        <mxRectangle width="54" height="70" as="alternateBounds"/>
                    </mxGeometry>
                </mxCell>
                <mxCell id="180" value="&lt;span style=&quot;font-size: 14px;&quot;&gt;ModelNo&lt;/span&gt;" style="shape=partialRectangle;html=1;whiteSpace=wrap;connectable=0;fillColor=none;top=0;left=0;bottom=0;right=0;overflow=hidden;" vertex="1" parent="178">
                    <mxGeometry x="54" width="280" height="70" as="geometry">
                        <mxRectangle width="280" height="70" as="alternateBounds"/>
                    </mxGeometry>
                </mxCell>
                <mxCell id="183" value="&lt;span style=&quot;font-size: 14px;&quot;&gt;DSM_Producer_GT&lt;/span&gt;" style="shape=partialRectangle;html=1;whiteSpace=wrap;connectable=0;fillColor=none;top=0;left=0;bottom=0;right=0;overflow=hidden;" vertex="1" parent="178">
                    <mxGeometry x="334" width="300" height="70" as="geometry">
                        <mxRectangle width="300" height="70" as="alternateBounds"/>
                    </mxGeometry>
                </mxCell>
                <mxCell id="186" value="&lt;span style=&quot;font-size: 14px;&quot;&gt;System model&lt;/span&gt;" style="shape=partialRectangle;html=1;whiteSpace=wrap;connectable=0;fillColor=none;top=0;left=0;bottom=0;right=0;overflow=hidden;align=left;" vertex="1" parent="178">
                    <mxGeometry x="634" width="505" height="70" as="geometry">
                        <mxRectangle width="505" height="70" as="alternateBounds"/>
                    </mxGeometry>
                </mxCell>
                <mxCell id="196" style="shape=tableRow;horizontal=0;startSize=0;swimlaneHead=0;swimlaneBody=0;top=0;left=0;bottom=0;right=0;collapsible=0;dropTarget=0;fillColor=none;points=[[0,0.5],[1,0.5]];portConstraint=eastwest;" vertex="1" parent="171">
                    <mxGeometry y="208" width="1139" height="70" as="geometry"/>
                </mxCell>
                <mxCell id="197" value="&lt;span style=&quot;font-size: 14px;&quot;&gt;3&lt;/span&gt;" style="shape=partialRectangle;html=1;whiteSpace=wrap;connectable=0;fillColor=none;top=0;left=0;bottom=0;right=0;overflow=hidden;" vertex="1" parent="196">
                    <mxGeometry width="54" height="70" as="geometry">
                        <mxRectangle width="54" height="70" as="alternateBounds"/>
                    </mxGeometry>
                </mxCell>
                <mxCell id="198" value="&lt;span style=&quot;font-size: 14px;&quot;&gt;SystemType&lt;/span&gt;" style="shape=partialRectangle;html=1;whiteSpace=wrap;connectable=0;fillColor=none;top=0;left=0;bottom=0;right=0;overflow=hidden;" vertex="1" parent="196">
                    <mxGeometry x="54" width="280" height="70" as="geometry">
                        <mxRectangle width="280" height="70" as="alternateBounds"/>
                    </mxGeometry>
                </mxCell>
                <mxCell id="199" value="&lt;span style=&quot;font-size: 14px;&quot;&gt;PRD_2&lt;/span&gt;" style="shape=partialRectangle;html=1;whiteSpace=wrap;connectable=0;fillColor=none;top=0;left=0;bottom=0;right=0;overflow=hidden;" vertex="1" parent="196">
                    <mxGeometry x="334" width="300" height="70" as="geometry">
                        <mxRectangle width="300" height="70" as="alternateBounds"/>
                    </mxGeometry>
                </mxCell>
                <mxCell id="200" value="&lt;span style=&quot;font-size: 14px;&quot;&gt;Type of system&lt;/span&gt;" style="shape=partialRectangle;html=1;whiteSpace=wrap;connectable=0;fillColor=none;top=0;left=0;bottom=0;right=0;overflow=hidden;align=left;" vertex="1" parent="196">
                    <mxGeometry x="634" width="505" height="70" as="geometry">
                        <mxRectangle width="505" height="70" as="alternateBounds"/>
                    </mxGeometry>
                </mxCell>
                <mxCell id="202" style="shape=tableRow;horizontal=0;startSize=0;swimlaneHead=0;swimlaneBody=0;top=0;left=0;bottom=0;right=0;collapsible=0;dropTarget=0;fillColor=none;points=[[0,0.5],[1,0.5]];portConstraint=eastwest;" vertex="1" parent="171">
                    <mxGeometry y="278" width="1139" height="72" as="geometry"/>
                </mxCell>
                <mxCell id="203" value="&lt;span style=&quot;font-size: 14px;&quot;&gt;4&lt;/span&gt;" style="shape=partialRectangle;html=1;whiteSpace=wrap;connectable=0;fillColor=none;top=0;left=0;bottom=0;right=0;overflow=hidden;" vertex="1" parent="202">
                    <mxGeometry width="54" height="72" as="geometry">
                        <mxRectangle width="54" height="72" as="alternateBounds"/>
                    </mxGeometry>
                </mxCell>
                <mxCell id="204" value="&lt;span style=&quot;font-size: 14px;&quot;&gt;HostPort&lt;/span&gt;" style="shape=partialRectangle;html=1;whiteSpace=wrap;connectable=0;fillColor=none;top=0;left=0;bottom=0;right=0;overflow=hidden;" vertex="1" parent="202">
                    <mxGeometry x="54" width="280" height="72" as="geometry">
                        <mxRectangle width="280" height="72" as="alternateBounds"/>
                    </mxGeometry>
                </mxCell>
                <mxCell id="205" value="&lt;span style=&quot;font-size: 14px;&quot;&gt;10000&lt;/span&gt;" style="shape=partialRectangle;html=1;whiteSpace=wrap;connectable=0;fillColor=none;top=0;left=0;bottom=0;right=0;overflow=hidden;" vertex="1" parent="202">
                    <mxGeometry x="334" width="300" height="72" as="geometry">
                        <mxRectangle width="300" height="72" as="alternateBounds"/>
                    </mxGeometry>
                </mxCell>
                <mxCell id="206" value="&lt;span style=&quot;font-size: 14px;&quot;&gt;Connection port to the server&lt;/span&gt;" style="shape=partialRectangle;html=1;whiteSpace=wrap;connectable=0;fillColor=none;top=0;left=0;bottom=0;right=0;overflow=hidden;align=left;" vertex="1" parent="202">
                    <mxGeometry x="634" width="505" height="72" as="geometry">
                        <mxRectangle width="505" height="72" as="alternateBounds"/>
                    </mxGeometry>
                </mxCell>
                <mxCell id="208" style="shape=tableRow;horizontal=0;startSize=0;swimlaneHead=0;swimlaneBody=0;top=0;left=0;bottom=0;right=0;collapsible=0;dropTarget=0;fillColor=none;points=[[0,0.5],[1,0.5]];portConstraint=eastwest;" vertex="1" parent="171">
                    <mxGeometry y="350" width="1139" height="72" as="geometry"/>
                </mxCell>
                <mxCell id="209" value="&lt;span style=&quot;font-size: 14px;&quot;&gt;5&lt;/span&gt;" style="shape=partialRectangle;html=1;whiteSpace=wrap;connectable=0;fillColor=none;top=0;left=0;bottom=0;right=0;overflow=hidden;" vertex="1" parent="208">
                    <mxGeometry width="54" height="72" as="geometry">
                        <mxRectangle width="54" height="72" as="alternateBounds"/>
                    </mxGeometry>
                </mxCell>
                <mxCell id="210" value="&lt;span style=&quot;font-size: 14px;&quot;&gt;UnitPort&lt;/span&gt;" style="shape=partialRectangle;html=1;whiteSpace=wrap;connectable=0;fillColor=none;top=0;left=0;bottom=0;right=0;overflow=hidden;" vertex="1" parent="208">
                    <mxGeometry x="54" width="280" height="72" as="geometry">
                        <mxRectangle width="280" height="72" as="alternateBounds"/>
                    </mxGeometry>
                </mxCell>
                <mxCell id="211" value="&lt;span style=&quot;font-size: 14px;&quot;&gt;12000&lt;/span&gt;" style="shape=partialRectangle;html=1;whiteSpace=wrap;connectable=0;fillColor=none;top=0;left=0;bottom=0;right=0;overflow=hidden;" vertex="1" parent="208">
                    <mxGeometry x="334" width="300" height="72" as="geometry">
                        <mxRectangle width="300" height="72" as="alternateBounds"/>
                    </mxGeometry>
                </mxCell>
                <mxCell id="212" value="&lt;span style=&quot;font-size: 14px;&quot;&gt;Connection port to the unit&lt;/span&gt;" style="shape=partialRectangle;html=1;whiteSpace=wrap;connectable=0;fillColor=none;top=0;left=0;bottom=0;right=0;overflow=hidden;align=left;" vertex="1" parent="208">
                    <mxGeometry x="634" width="505" height="72" as="geometry">
                        <mxRectangle width="505" height="72" as="alternateBounds"/>
                    </mxGeometry>
                </mxCell>
                <mxCell id="226" style="shape=tableRow;horizontal=0;startSize=0;swimlaneHead=0;swimlaneBody=0;top=0;left=0;bottom=0;right=0;collapsible=0;dropTarget=0;fillColor=none;points=[[0,0.5],[1,0.5]];portConstraint=eastwest;" vertex="1" parent="171">
                    <mxGeometry y="422" width="1139" height="72" as="geometry"/>
                </mxCell>
                <mxCell id="227" value="&lt;span style=&quot;font-size: 14px;&quot;&gt;6&lt;/span&gt;" style="shape=partialRectangle;html=1;whiteSpace=wrap;connectable=0;fillColor=none;top=0;left=0;bottom=0;right=0;overflow=hidden;" vertex="1" parent="226">
                    <mxGeometry width="54" height="72" as="geometry">
                        <mxRectangle width="54" height="72" as="alternateBounds"/>
                    </mxGeometry>
                </mxCell>
                <mxCell id="228" value="&lt;span style=&quot;font-size: 14px;&quot;&gt;LogServerPort&lt;/span&gt;" style="shape=partialRectangle;html=1;whiteSpace=wrap;connectable=0;fillColor=none;top=0;left=0;bottom=0;right=0;overflow=hidden;" vertex="1" parent="226">
                    <mxGeometry x="54" width="280" height="72" as="geometry">
                        <mxRectangle width="280" height="72" as="alternateBounds"/>
                    </mxGeometry>
                </mxCell>
                <mxCell id="229" value="&lt;span style=&quot;font-size: 14px;&quot;&gt;11300&lt;/span&gt;" style="shape=partialRectangle;html=1;whiteSpace=wrap;connectable=0;fillColor=none;top=0;left=0;bottom=0;right=0;overflow=hidden;" vertex="1" parent="226">
                    <mxGeometry x="334" width="300" height="72" as="geometry">
                        <mxRectangle width="300" height="72" as="alternateBounds"/>
                    </mxGeometry>
                </mxCell>
                <mxCell id="230" value="&lt;span style=&quot;font-size: 14px;&quot;&gt;Connection port to LogServer PC&lt;/span&gt;" style="shape=partialRectangle;html=1;whiteSpace=wrap;connectable=0;fillColor=none;top=0;left=0;bottom=0;right=0;overflow=hidden;align=left;" vertex="1" parent="226">
                    <mxGeometry x="634" width="505" height="72" as="geometry">
                        <mxRectangle width="505" height="72" as="alternateBounds"/>
                    </mxGeometry>
                </mxCell>
                <mxCell id="221" style="shape=tableRow;horizontal=0;startSize=0;swimlaneHead=0;swimlaneBody=0;top=0;left=0;bottom=0;right=0;collapsible=0;dropTarget=0;fillColor=none;points=[[0,0.5],[1,0.5]];portConstraint=eastwest;" vertex="1" parent="171">
                    <mxGeometry y="494" width="1139" height="70" as="geometry"/>
                </mxCell>
                <mxCell id="222" value="&lt;span style=&quot;font-size: 14px;&quot;&gt;7&lt;/span&gt;" style="shape=partialRectangle;html=1;whiteSpace=wrap;connectable=0;fillColor=none;top=0;left=0;bottom=0;right=0;overflow=hidden;" vertex="1" parent="221">
                    <mxGeometry width="54" height="70" as="geometry">
                        <mxRectangle width="54" height="70" as="alternateBounds"/>
                    </mxGeometry>
                </mxCell>
                <mxCell id="223" value="&lt;span style=&quot;font-size: 14px;&quot;&gt;LogServerAddress&lt;/span&gt;" style="shape=partialRectangle;html=1;whiteSpace=wrap;connectable=0;fillColor=none;top=0;left=0;bottom=0;right=0;overflow=hidden;" vertex="1" parent="221">
                    <mxGeometry x="54" width="280" height="70" as="geometry">
                        <mxRectangle width="280" height="70" as="alternateBounds"/>
                    </mxGeometry>
                </mxCell>
                <mxCell id="224" value="&lt;span style=&quot;font-size: 14px;&quot;&gt;127.0.0.1&lt;/span&gt;" style="shape=partialRectangle;html=1;whiteSpace=wrap;connectable=0;fillColor=none;top=0;left=0;bottom=0;right=0;overflow=hidden;" vertex="1" parent="221">
                    <mxGeometry x="334" width="300" height="70" as="geometry">
                        <mxRectangle width="300" height="70" as="alternateBounds"/>
                    </mxGeometry>
                </mxCell>
                <mxCell id="225" value="&lt;span style=&quot;font-size: 14px;&quot;&gt;IP address of LogServer PC&lt;/span&gt;" style="shape=partialRectangle;html=1;whiteSpace=wrap;connectable=0;fillColor=none;top=0;left=0;bottom=0;right=0;overflow=hidden;align=left;" vertex="1" parent="221">
                    <mxGeometry x="634" width="505" height="70" as="geometry">
                        <mxRectangle width="505" height="70" as="alternateBounds"/>
                    </mxGeometry>
                </mxCell>
                <mxCell id="214" style="shape=tableRow;horizontal=0;startSize=0;swimlaneHead=0;swimlaneBody=0;top=0;left=0;bottom=0;right=0;collapsible=0;dropTarget=0;fillColor=none;points=[[0,0.5],[1,0.5]];portConstraint=eastwest;" vertex="1" parent="171">
                    <mxGeometry y="564" width="1139" height="70" as="geometry"/>
                </mxCell>
                <mxCell id="215" value="&lt;span style=&quot;font-size: 14px;&quot;&gt;8&lt;/span&gt;" style="shape=partialRectangle;html=1;whiteSpace=wrap;connectable=0;fillColor=none;top=0;left=0;bottom=0;right=0;overflow=hidden;" vertex="1" parent="214">
                    <mxGeometry width="54" height="70" as="geometry">
                        <mxRectangle width="54" height="70" as="alternateBounds"/>
                    </mxGeometry>
                </mxCell>
                <mxCell id="216" value="&lt;span style=&quot;font-size: 14px;&quot;&gt;RobotNum&lt;/span&gt;" style="shape=partialRectangle;html=1;whiteSpace=wrap;connectable=0;fillColor=none;top=0;left=0;bottom=0;right=0;overflow=hidden;" vertex="1" parent="214">
                    <mxGeometry x="54" width="280" height="70" as="geometry">
                        <mxRectangle width="280" height="70" as="alternateBounds"/>
                    </mxGeometry>
                </mxCell>
                <mxCell id="217" value="&lt;span style=&quot;font-size: 14px;&quot;&gt;2&lt;/span&gt;" style="shape=partialRectangle;html=1;whiteSpace=wrap;connectable=0;fillColor=none;top=0;left=0;bottom=0;right=0;overflow=hidden;" vertex="1" parent="214">
                    <mxGeometry x="334" width="300" height="70" as="geometry">
                        <mxRectangle width="300" height="70" as="alternateBounds"/>
                    </mxGeometry>
                </mxCell>
                <mxCell id="218" value="&lt;span style=&quot;font-size: 14px;&quot;&gt;Number of robots&lt;/span&gt;" style="shape=partialRectangle;html=1;whiteSpace=wrap;connectable=0;fillColor=none;top=0;left=0;bottom=0;right=0;overflow=hidden;align=left;" vertex="1" parent="214">
                    <mxGeometry x="634" width="505" height="70" as="geometry">
                        <mxRectangle width="505" height="70" as="alternateBounds"/>
                    </mxGeometry>
                </mxCell>
                <mxCell id="283" value="" style="html=1;shadow=0;dashed=0;shape=mxgraph.atlassian.close;fillColor=#BA3200;strokeColor=none;html=1;sketch=0;fontSize=14;aspect=fixed;" vertex="1" parent="26">
                    <mxGeometry x="106" y="7.800249687890137" width="9.75031210986267" height="9.75031210986267" as="geometry"/>
                </mxCell>
                <mxCell id="284" value="" style="html=1;shadow=0;dashed=0;shape=mxgraph.atlassian.close;fillColor=#BA3200;strokeColor=none;html=1;sketch=0;fontSize=14;aspect=fixed;" vertex="1" parent="26">
                    <mxGeometry x="221" y="6.82521847690387" width="9.75031210986267" height="9.75031210986267" as="geometry"/>
                </mxCell>
                <mxCell id="287" value="" style="whiteSpace=wrap;html=1;strokeColor=#666666;fontSize=14;fillColor=#FFFFFF;" vertex="1" parent="26">
                    <mxGeometry y="741.02" width="1580" height="39.98" as="geometry"/>
                </mxCell>
                <mxCell id="110" value="&lt;font style=&quot;font-size: 17px;&quot; color=&quot;#666666&quot;&gt;File path: D:\AMAT\DSM_GT\aproc.ini&lt;/font&gt;" style="text;html=1;align=center;verticalAlign=middle;resizable=0;points=[];autosize=1;strokeColor=none;fillColor=none;fontSize=20;fontColor=#FFFFFF;" parent="26" vertex="1">
                    <mxGeometry x="1260" y="742.2437203495631" width="310" height="40" as="geometry"/>
                </mxCell>
                <mxCell id="68" value="" style="html=1;verticalLabelPosition=bottom;labelBackgroundColor=#ffffff;verticalAlign=top;shadow=0;dashed=0;strokeWidth=1;shape=mxgraph.ios7ui.onOffButton;buttonState=off;strokeColor=#38D145;strokeColor2=#aaaaaa;fillColor=#38D145;fillColor2=#ffffff;fontSize=30;fontColor=#666666;" parent="26" vertex="1">
                    <mxGeometry x="1270" y="52" width="43.5" height="20" as="geometry"/>
                </mxCell>
                <mxCell id="34" value="" style="strokeWidth=1;shadow=0;dashed=0;align=center;html=1;shape=mxgraph.mockup.forms.rrect;rSize=0;strokeColor=#999999;" parent="168" vertex="1">
                    <mxGeometry x="1" y="31" width="190" height="30" as="geometry"/>
                </mxCell>
                <mxCell id="35" value="File" style="strokeColor=inherit;fillColor=inherit;gradientColor=inherit;strokeWidth=1;shadow=0;dashed=0;align=center;html=1;shape=mxgraph.mockup.forms.rrect;rSize=0;fontSize=17;fontColor=#666666;" parent="34" vertex="1">
                    <mxGeometry width="95" height="30" as="geometry"/>
                </mxCell>
                <mxCell id="36" value="Tool" style="strokeColor=inherit;fillColor=inherit;gradientColor=inherit;strokeWidth=1;shadow=0;dashed=0;align=center;html=1;shape=mxgraph.mockup.forms.rrect;rSize=0;fontSize=17;fontColor=#666666;" parent="34" vertex="1">
                    <mxGeometry x="94.82892069171137" width="95" height="30" as="geometry"/>
                </mxCell>
                <mxCell id="220" value="" style="verticalLabelPosition=bottom;shadow=0;dashed=0;align=center;html=1;verticalAlign=top;strokeWidth=1;shape=mxgraph.mockup.navigation.scrollBar;strokeColor=#999999;barPos=100;fillColor2=#99ddff;strokeColor2=none;direction=north;" vertex="1" parent="168">
                    <mxGeometry x="1525" y="200" width="20" height="634" as="geometry"/>
                </mxCell>
                <mxCell id="293" value="Export" style="strokeWidth=1;shadow=0;dashed=0;align=center;html=1;shape=mxgraph.mockup.buttons.button;strokeColor=#666666;fontColor=#ffffff;mainText=;buttonStyle=round;fontSize=17;fontStyle=1;fillColor=#008cff;whiteSpace=wrap;" vertex="1" parent="168">
                    <mxGeometry x="1050" y="150" width="150" height="30" as="geometry"/>
                </mxCell>
                <mxCell id="304" value="" style="verticalLabelPosition=bottom;shadow=0;dashed=0;align=center;html=1;verticalAlign=top;strokeWidth=1;shape=mxgraph.mockup.graphics.simpleIcon;strokeColor=#999999;fillColor=#ffffff;fontSize=17;aspect=fixed;" vertex="1" parent="168">
                    <mxGeometry x="8" y="65" width="30" height="30" as="geometry"/>
                </mxCell>
                <mxCell id="305" value="" style="verticalLabelPosition=bottom;shadow=0;dashed=0;align=center;html=1;verticalAlign=top;strokeWidth=1;shape=mxgraph.mockup.graphics.simpleIcon;strokeColor=#999999;fillColor=#ffffff;fontSize=17;aspect=fixed;" vertex="1" parent="168">
                    <mxGeometry x="83" y="65" width="30" height="30" as="geometry"/>
                </mxCell>
                <mxCell id="306" value="" style="verticalLabelPosition=bottom;shadow=0;dashed=0;align=center;html=1;verticalAlign=top;strokeWidth=1;shape=mxgraph.mockup.graphics.simpleIcon;strokeColor=#999999;fillColor=#ffffff;fontSize=17;aspect=fixed;" vertex="1" parent="168">
                    <mxGeometry x="158" y="65" width="30" height="30" as="geometry"/>
                </mxCell>
                <mxCell id="169" value="" style="group" parent="1" vertex="1" connectable="0">
                    <mxGeometry x="3360" y="10" width="1580" height="880" as="geometry"/>
                </mxCell>
                <mxCell id="111" value="Setting Data Viewer" style="strokeWidth=1;shadow=0;dashed=0;align=center;html=1;shape=mxgraph.mockup.containers.window;align=left;verticalAlign=top;spacingLeft=8;strokeColor2=#008cff;strokeColor3=#c4c4c4;fontColor=#666666;mainText=;fontSize=17;labelBackgroundColor=none;" parent="169" vertex="1">
                    <mxGeometry width="1580" height="880" as="geometry"/>
                </mxCell>
                <mxCell id="112" value="" style="strokeWidth=1;shadow=0;dashed=0;align=center;html=1;shape=mxgraph.mockup.containers.marginRect2;rectMarginTop=32;strokeColor=#666666;gradientColor=none;" parent="169" vertex="1">
                    <mxGeometry y="100" width="1580" height="780" as="geometry"/>
                </mxCell>
                <mxCell id="113" value="AMAT-6x\" style="strokeColor=inherit;fillColor=inherit;gradientColor=inherit;strokeWidth=1;shadow=0;dashed=0;align=left;html=1;shape=mxgraph.mockup.containers.rrect;rSize=0;fontSize=17;fontColor=#666666;gradientColor=none;" parent="112" vertex="1">
                    <mxGeometry width="110" height="25" relative="1" as="geometry">
                        <mxPoint x="10" as="offset"/>
                    </mxGeometry>
                </mxCell>
                <mxCell id="114" value="DSM_GT\" style="strokeWidth=1;shadow=0;dashed=0;align=left;html=1;shape=mxgraph.mockup.containers.rrect;rSize=0;fontSize=17;fontColor=#ffffff;strokeColor=#008cff;fillColor=#008cff;" parent="112" vertex="1">
                    <mxGeometry width="110" height="25" relative="1" as="geometry">
                        <mxPoint x="126" as="offset"/>
                    </mxGeometry>
                </mxCell>
                <mxCell id="115" value="" style="strokeWidth=1;shadow=0;dashed=0;align=center;html=1;shape=mxgraph.mockup.containers.topButton;rSize=5;strokeColor=#008cff;fillColor=#008cff;gradientColor=none;resizeWidth=1;movable=0;deletable=1;" parent="112" vertex="1">
                    <mxGeometry width="1580" height="7" relative="1" as="geometry">
                        <mxPoint y="25" as="offset"/>
                    </mxGeometry>
                </mxCell>
                <mxCell id="155" value="CGAFI Data View" style="text;html=1;align=left;verticalAlign=middle;resizable=0;points=[];autosize=1;strokeColor=none;fillColor=none;fontSize=20;fontColor=#666666;fontStyle=1" parent="112" vertex="1">
                    <mxGeometry x="1335" y="48.691310861423226" width="190" height="40" as="geometry"/>
                </mxCell>
                <mxCell id="231" value="" style="shape=table;html=1;whiteSpace=wrap;startSize=0;container=1;collapsible=0;childLayout=tableLayout;strokeWidth=2;" vertex="1" parent="112">
                    <mxGeometry x="20" y="100.2996254681648" width="1505" height="632.9588014981274" as="geometry"/>
                </mxCell>
                <mxCell id="232" value="" style="shape=tableRow;horizontal=0;startSize=0;swimlaneHead=0;swimlaneBody=0;top=0;left=0;bottom=0;right=0;collapsible=0;dropTarget=0;fillColor=none;points=[[0,0.5],[1,0.5]];portConstraint=eastwest;" vertex="1" parent="231">
                    <mxGeometry width="1505" height="70" as="geometry"/>
                </mxCell>
                <mxCell id="233" value="&lt;font style=&quot;font-size: 14px;&quot;&gt;No&lt;/font&gt;" style="shape=partialRectangle;html=1;whiteSpace=wrap;connectable=0;fillColor=none;top=0;left=0;bottom=0;right=0;overflow=hidden;fontStyle=1" vertex="1" parent="232">
                    <mxGeometry width="72" height="70" as="geometry">
                        <mxRectangle width="72" height="70" as="alternateBounds"/>
                    </mxGeometry>
                </mxCell>
                <mxCell id="234" value="&lt;font style=&quot;font-size: 14px;&quot;&gt;Items&lt;/font&gt;" style="shape=partialRectangle;html=1;whiteSpace=wrap;connectable=0;fillColor=none;top=0;left=0;bottom=0;right=0;overflow=hidden;fontStyle=1" vertex="1" parent="232">
                    <mxGeometry x="72" width="368" height="70" as="geometry">
                        <mxRectangle width="368" height="70" as="alternateBounds"/>
                    </mxGeometry>
                </mxCell>
                <mxCell id="235" value="&lt;font style=&quot;font-size: 14px;&quot;&gt;Value&lt;/font&gt;" style="shape=partialRectangle;html=1;whiteSpace=wrap;connectable=0;fillColor=none;top=0;left=0;bottom=0;right=0;overflow=hidden;fontStyle=1" vertex="1" parent="232">
                    <mxGeometry x="440" width="400" height="70" as="geometry">
                        <mxRectangle width="400" height="70" as="alternateBounds"/>
                    </mxGeometry>
                </mxCell>
                <mxCell id="236" value="&lt;font style=&quot;font-size: 14px;&quot;&gt;Description&lt;/font&gt;" style="shape=partialRectangle;html=1;whiteSpace=wrap;connectable=0;fillColor=none;top=0;left=0;bottom=0;right=0;overflow=hidden;fontStyle=1" vertex="1" parent="232">
                    <mxGeometry x="840" width="665" height="70" as="geometry">
                        <mxRectangle width="665" height="70" as="alternateBounds"/>
                    </mxGeometry>
                </mxCell>
                <mxCell id="237" value="" style="shape=tableRow;horizontal=0;startSize=0;swimlaneHead=0;swimlaneBody=0;top=0;left=0;bottom=0;right=0;collapsible=0;dropTarget=0;fillColor=none;points=[[0,0.5],[1,0.5]];portConstraint=eastwest;" vertex="1" parent="231">
                    <mxGeometry y="70" width="1505" height="68" as="geometry"/>
                </mxCell>
                <mxCell id="238" value="&lt;span style=&quot;font-size: 14px;&quot;&gt;1&lt;/span&gt;" style="shape=partialRectangle;html=1;whiteSpace=wrap;connectable=0;fillColor=none;top=0;left=0;bottom=0;right=0;overflow=hidden;" vertex="1" parent="237">
                    <mxGeometry width="72" height="68" as="geometry">
                        <mxRectangle width="72" height="68" as="alternateBounds"/>
                    </mxGeometry>
                </mxCell>
                <mxCell id="239" value="&lt;span style=&quot;font-size: 14px;&quot;&gt;Port&lt;/span&gt;" style="shape=partialRectangle;html=1;whiteSpace=wrap;connectable=0;fillColor=none;top=0;left=0;bottom=0;right=0;overflow=hidden;" vertex="1" parent="237">
                    <mxGeometry x="72" width="368" height="68" as="geometry">
                        <mxRectangle width="368" height="68" as="alternateBounds"/>
                    </mxGeometry>
                </mxCell>
                <mxCell id="240" value="&lt;span style=&quot;font-size: 14px;&quot;&gt;4&lt;/span&gt;" style="shape=partialRectangle;html=1;whiteSpace=wrap;connectable=0;fillColor=none;top=0;left=0;bottom=0;right=0;overflow=hidden;" vertex="1" parent="237">
                    <mxGeometry x="440" width="400" height="68" as="geometry">
                        <mxRectangle width="400" height="68" as="alternateBounds"/>
                    </mxGeometry>
                </mxCell>
                <mxCell id="241" value="&lt;span style=&quot;font-size: 14px;&quot;&gt;Number of loadports&lt;/span&gt;" style="shape=partialRectangle;html=1;whiteSpace=wrap;connectable=0;fillColor=none;top=0;left=0;bottom=0;right=0;overflow=hidden;align=left;" vertex="1" parent="237">
                    <mxGeometry x="840" width="665" height="68" as="geometry">
                        <mxRectangle width="665" height="68" as="alternateBounds"/>
                    </mxGeometry>
                </mxCell>
                <mxCell id="242" value="" style="shape=tableRow;horizontal=0;startSize=0;swimlaneHead=0;swimlaneBody=0;top=0;left=0;bottom=0;right=0;collapsible=0;dropTarget=0;fillColor=none;points=[[0,0.5],[1,0.5]];portConstraint=eastwest;" vertex="1" parent="231">
                    <mxGeometry y="138" width="1505" height="70" as="geometry"/>
                </mxCell>
                <mxCell id="243" value="&lt;span style=&quot;font-size: 14px;&quot;&gt;2&lt;/span&gt;" style="shape=partialRectangle;html=1;whiteSpace=wrap;connectable=0;fillColor=none;top=0;left=0;bottom=0;right=0;overflow=hidden;" vertex="1" parent="242">
                    <mxGeometry width="72" height="70" as="geometry">
                        <mxRectangle width="72" height="70" as="alternateBounds"/>
                    </mxGeometry>
                </mxCell>
                <mxCell id="244" value="&lt;span style=&quot;font-size: 14px;&quot;&gt;PortArea&lt;/span&gt;" style="shape=partialRectangle;html=1;whiteSpace=wrap;connectable=0;fillColor=none;top=0;left=0;bottom=0;right=0;overflow=hidden;" vertex="1" parent="242">
                    <mxGeometry x="72" width="368" height="70" as="geometry">
                        <mxRectangle width="368" height="70" as="alternateBounds"/>
                    </mxGeometry>
                </mxCell>
                <mxCell id="245" value="&lt;span style=&quot;font-size: 14px;&quot;&gt;4&lt;/span&gt;" style="shape=partialRectangle;html=1;whiteSpace=wrap;connectable=0;fillColor=none;top=0;left=0;bottom=0;right=0;overflow=hidden;" vertex="1" parent="242">
                    <mxGeometry x="440" width="400" height="70" as="geometry">
                        <mxRectangle width="400" height="70" as="alternateBounds"/>
                    </mxGeometry>
                </mxCell>
                <mxCell id="246" value="&lt;span style=&quot;font-size: 14px;&quot;&gt;Port area&lt;/span&gt;" style="shape=partialRectangle;html=1;whiteSpace=wrap;connectable=0;fillColor=none;top=0;left=0;bottom=0;right=0;overflow=hidden;align=left;" vertex="1" parent="242">
                    <mxGeometry x="840" width="665" height="70" as="geometry">
                        <mxRectangle width="665" height="70" as="alternateBounds"/>
                    </mxGeometry>
                </mxCell>
                <mxCell id="247" style="shape=tableRow;horizontal=0;startSize=0;swimlaneHead=0;swimlaneBody=0;top=0;left=0;bottom=0;right=0;collapsible=0;dropTarget=0;fillColor=none;points=[[0,0.5],[1,0.5]];portConstraint=eastwest;" vertex="1" parent="231">
                    <mxGeometry y="208" width="1505" height="71" as="geometry"/>
                </mxCell>
                <mxCell id="248" value="&lt;span style=&quot;font-size: 14px;&quot;&gt;3&lt;/span&gt;" style="shape=partialRectangle;html=1;whiteSpace=wrap;connectable=0;fillColor=none;top=0;left=0;bottom=0;right=0;overflow=hidden;" vertex="1" parent="247">
                    <mxGeometry width="72" height="71" as="geometry">
                        <mxRectangle width="72" height="71" as="alternateBounds"/>
                    </mxGeometry>
                </mxCell>
                <mxCell id="249" value="&lt;span style=&quot;font-size: 14px;&quot;&gt;Uport&lt;/span&gt;" style="shape=partialRectangle;html=1;whiteSpace=wrap;connectable=0;fillColor=none;top=0;left=0;bottom=0;right=0;overflow=hidden;" vertex="1" parent="247">
                    <mxGeometry x="72" width="368" height="71" as="geometry">
                        <mxRectangle width="368" height="71" as="alternateBounds"/>
                    </mxGeometry>
                </mxCell>
                <mxCell id="250" value="&lt;span style=&quot;font-size: 14px;&quot;&gt;25&lt;/span&gt;" style="shape=partialRectangle;html=1;whiteSpace=wrap;connectable=0;fillColor=none;top=0;left=0;bottom=0;right=0;overflow=hidden;" vertex="1" parent="247">
                    <mxGeometry x="440" width="400" height="71" as="geometry">
                        <mxRectangle width="400" height="71" as="alternateBounds"/>
                    </mxGeometry>
                </mxCell>
                <mxCell id="251" value="&lt;div style=&quot;text-align: center;&quot;&gt;&lt;span style=&quot;background-color: initial; font-size: 14px;&quot;&gt;Number of utility ports&lt;/span&gt;&lt;/div&gt;" style="shape=partialRectangle;html=1;whiteSpace=wrap;connectable=0;fillColor=none;top=0;left=0;bottom=0;right=0;overflow=hidden;align=left;" vertex="1" parent="247">
                    <mxGeometry x="840" width="665" height="71" as="geometry">
                        <mxRectangle width="665" height="71" as="alternateBounds"/>
                    </mxGeometry>
                </mxCell>
                <mxCell id="252" style="shape=tableRow;horizontal=0;startSize=0;swimlaneHead=0;swimlaneBody=0;top=0;left=0;bottom=0;right=0;collapsible=0;dropTarget=0;fillColor=none;points=[[0,0.5],[1,0.5]];portConstraint=eastwest;" vertex="1" parent="231">
                    <mxGeometry y="279" width="1505" height="71" as="geometry"/>
                </mxCell>
                <mxCell id="253" value="&lt;span style=&quot;font-size: 14px;&quot;&gt;1&lt;/span&gt;" style="shape=partialRectangle;html=1;whiteSpace=wrap;connectable=0;fillColor=none;top=0;left=0;bottom=0;right=0;overflow=hidden;" vertex="1" parent="252">
                    <mxGeometry width="72" height="71" as="geometry">
                        <mxRectangle width="72" height="71" as="alternateBounds"/>
                    </mxGeometry>
                </mxCell>
                <mxCell id="254" value="&lt;span style=&quot;font-size: 14px;&quot;&gt;Slot&lt;/span&gt;" style="shape=partialRectangle;html=1;whiteSpace=wrap;connectable=0;fillColor=none;top=0;left=0;bottom=0;right=0;overflow=hidden;" vertex="1" parent="252">
                    <mxGeometry x="72" width="368" height="71" as="geometry">
                        <mxRectangle width="368" height="71" as="alternateBounds"/>
                    </mxGeometry>
                </mxCell>
                <mxCell id="255" value="&lt;span style=&quot;font-size: 14px;&quot;&gt;25&lt;/span&gt;" style="shape=partialRectangle;html=1;whiteSpace=wrap;connectable=0;fillColor=none;top=0;left=0;bottom=0;right=0;overflow=hidden;" vertex="1" parent="252">
                    <mxGeometry x="440" width="400" height="71" as="geometry">
                        <mxRectangle width="400" height="71" as="alternateBounds"/>
                    </mxGeometry>
                </mxCell>
                <mxCell id="256" value="&lt;span style=&quot;font-size: 14px; text-align: center;&quot;&gt;Number of slots&lt;/span&gt;" style="shape=partialRectangle;html=1;whiteSpace=wrap;connectable=0;fillColor=none;top=0;left=0;bottom=0;right=0;overflow=hidden;align=left;" vertex="1" parent="252">
                    <mxGeometry x="840" width="665" height="71" as="geometry">
                        <mxRectangle width="665" height="71" as="alternateBounds"/>
                    </mxGeometry>
                </mxCell>
                <mxCell id="257" style="shape=tableRow;horizontal=0;startSize=0;swimlaneHead=0;swimlaneBody=0;top=0;left=0;bottom=0;right=0;collapsible=0;dropTarget=0;fillColor=none;points=[[0,0.5],[1,0.5]];portConstraint=eastwest;" vertex="1" parent="231">
                    <mxGeometry y="350" width="1505" height="71" as="geometry"/>
                </mxCell>
                <mxCell id="258" value="&lt;span style=&quot;font-size: 14px;&quot;&gt;5&lt;/span&gt;" style="shape=partialRectangle;html=1;whiteSpace=wrap;connectable=0;fillColor=none;top=0;left=0;bottom=0;right=0;overflow=hidden;" vertex="1" parent="257">
                    <mxGeometry width="72" height="71" as="geometry">
                        <mxRectangle width="72" height="71" as="alternateBounds"/>
                    </mxGeometry>
                </mxCell>
                <mxCell id="259" value="&lt;span style=&quot;font-size: 14px;&quot;&gt;Pitch&lt;/span&gt;" style="shape=partialRectangle;html=1;whiteSpace=wrap;connectable=0;fillColor=none;top=0;left=0;bottom=0;right=0;overflow=hidden;" vertex="1" parent="257">
                    <mxGeometry x="72" width="368" height="71" as="geometry">
                        <mxRectangle width="368" height="71" as="alternateBounds"/>
                    </mxGeometry>
                </mxCell>
                <mxCell id="260" value="&lt;span style=&quot;font-size: 14px;&quot;&gt;1000&lt;/span&gt;" style="shape=partialRectangle;html=1;whiteSpace=wrap;connectable=0;fillColor=none;top=0;left=0;bottom=0;right=0;overflow=hidden;" vertex="1" parent="257">
                    <mxGeometry x="440" width="400" height="71" as="geometry">
                        <mxRectangle width="400" height="71" as="alternateBounds"/>
                    </mxGeometry>
                </mxCell>
                <mxCell id="261" value="&lt;span style=&quot;font-size: 14px;&quot;&gt;Distance between 2 slots (unit: 10um)&lt;/span&gt;" style="shape=partialRectangle;html=1;whiteSpace=wrap;connectable=0;fillColor=none;top=0;left=0;bottom=0;right=0;overflow=hidden;align=left;" vertex="1" parent="257">
                    <mxGeometry x="840" width="665" height="71" as="geometry">
                        <mxRectangle width="665" height="71" as="alternateBounds"/>
                    </mxGeometry>
                </mxCell>
                <mxCell id="262" style="shape=tableRow;horizontal=0;startSize=0;swimlaneHead=0;swimlaneBody=0;top=0;left=0;bottom=0;right=0;collapsible=0;dropTarget=0;fillColor=none;points=[[0,0.5],[1,0.5]];portConstraint=eastwest;" vertex="1" parent="231">
                    <mxGeometry y="421" width="1505" height="72" as="geometry"/>
                </mxCell>
                <mxCell id="263" value="&lt;span style=&quot;font-size: 14px;&quot;&gt;6&lt;/span&gt;" style="shape=partialRectangle;html=1;whiteSpace=wrap;connectable=0;fillColor=none;top=0;left=0;bottom=0;right=0;overflow=hidden;" vertex="1" parent="262">
                    <mxGeometry width="72" height="72" as="geometry">
                        <mxRectangle width="72" height="72" as="alternateBounds"/>
                    </mxGeometry>
                </mxCell>
                <mxCell id="264" value="&lt;span style=&quot;font-size: 14px;&quot;&gt;Ulift&lt;/span&gt;" style="shape=partialRectangle;html=1;whiteSpace=wrap;connectable=0;fillColor=none;top=0;left=0;bottom=0;right=0;overflow=hidden;" vertex="1" parent="262">
                    <mxGeometry x="72" width="368" height="72" as="geometry">
                        <mxRectangle width="368" height="72" as="alternateBounds"/>
                    </mxGeometry>
                </mxCell>
                <mxCell id="265" value="&lt;span style=&quot;font-size: 14px;&quot;&gt;700&lt;/span&gt;" style="shape=partialRectangle;html=1;whiteSpace=wrap;connectable=0;fillColor=none;top=0;left=0;bottom=0;right=0;overflow=hidden;" vertex="1" parent="262">
                    <mxGeometry x="440" width="400" height="72" as="geometry">
                        <mxRectangle width="400" height="72" as="alternateBounds"/>
                    </mxGeometry>
                </mxCell>
                <mxCell id="266" value="&lt;span style=&quot;font-size: 14px;&quot;&gt;Upper lift&lt;/span&gt;" style="shape=partialRectangle;html=1;whiteSpace=wrap;connectable=0;fillColor=none;top=0;left=0;bottom=0;right=0;overflow=hidden;align=left;" vertex="1" parent="262">
                    <mxGeometry x="840" width="665" height="72" as="geometry">
                        <mxRectangle width="665" height="72" as="alternateBounds"/>
                    </mxGeometry>
                </mxCell>
                <mxCell id="267" style="shape=tableRow;horizontal=0;startSize=0;swimlaneHead=0;swimlaneBody=0;top=0;left=0;bottom=0;right=0;collapsible=0;dropTarget=0;fillColor=none;points=[[0,0.5],[1,0.5]];portConstraint=eastwest;" vertex="1" parent="231">
                    <mxGeometry y="493" width="1505" height="70" as="geometry"/>
                </mxCell>
                <mxCell id="268" value="&lt;span style=&quot;font-size: 14px;&quot;&gt;7&lt;/span&gt;" style="shape=partialRectangle;html=1;whiteSpace=wrap;connectable=0;fillColor=none;top=0;left=0;bottom=0;right=0;overflow=hidden;" vertex="1" parent="267">
                    <mxGeometry width="72" height="70" as="geometry">
                        <mxRectangle width="72" height="70" as="alternateBounds"/>
                    </mxGeometry>
                </mxCell>
                <mxCell id="269" value="&lt;span style=&quot;font-size: 14px;&quot;&gt;Llift&lt;/span&gt;" style="shape=partialRectangle;html=1;whiteSpace=wrap;connectable=0;fillColor=none;top=0;left=0;bottom=0;right=0;overflow=hidden;" vertex="1" parent="267">
                    <mxGeometry x="72" width="368" height="70" as="geometry">
                        <mxRectangle width="368" height="70" as="alternateBounds"/>
                    </mxGeometry>
                </mxCell>
                <mxCell id="270" value="&lt;span style=&quot;font-size: 14px;&quot;&gt;300&lt;/span&gt;" style="shape=partialRectangle;html=1;whiteSpace=wrap;connectable=0;fillColor=none;top=0;left=0;bottom=0;right=0;overflow=hidden;" vertex="1" parent="267">
                    <mxGeometry x="440" width="400" height="70" as="geometry">
                        <mxRectangle width="400" height="70" as="alternateBounds"/>
                    </mxGeometry>
                </mxCell>
                <mxCell id="271" value="&lt;span style=&quot;font-size: 14px;&quot;&gt;Lower lift&lt;/span&gt;" style="shape=partialRectangle;html=1;whiteSpace=wrap;connectable=0;fillColor=none;top=0;left=0;bottom=0;right=0;overflow=hidden;align=left;" vertex="1" parent="267">
                    <mxGeometry x="840" width="665" height="70" as="geometry">
                        <mxRectangle width="665" height="70" as="alternateBounds"/>
                    </mxGeometry>
                </mxCell>
                <mxCell id="272" style="shape=tableRow;horizontal=0;startSize=0;swimlaneHead=0;swimlaneBody=0;top=0;left=0;bottom=0;right=0;collapsible=0;dropTarget=0;fillColor=none;points=[[0,0.5],[1,0.5]];portConstraint=eastwest;" vertex="1" parent="231">
                    <mxGeometry y="563" width="1505" height="70" as="geometry"/>
                </mxCell>
                <mxCell id="273" value="&lt;span style=&quot;font-size: 14px;&quot;&gt;8&lt;/span&gt;" style="shape=partialRectangle;html=1;whiteSpace=wrap;connectable=0;fillColor=none;top=0;left=0;bottom=0;right=0;overflow=hidden;" vertex="1" parent="272">
                    <mxGeometry width="72" height="70" as="geometry">
                        <mxRectangle width="72" height="70" as="alternateBounds"/>
                    </mxGeometry>
                </mxCell>
                <mxCell id="274" value="&lt;span style=&quot;font-size: 14px;&quot;&gt;Sniff&lt;/span&gt;" style="shape=partialRectangle;html=1;whiteSpace=wrap;connectable=0;fillColor=none;top=0;left=0;bottom=0;right=0;overflow=hidden;" vertex="1" parent="272">
                    <mxGeometry x="72" width="368" height="70" as="geometry">
                        <mxRectangle width="368" height="70" as="alternateBounds"/>
                    </mxGeometry>
                </mxCell>
                <mxCell id="275" value="&lt;span style=&quot;font-size: 14px;&quot;&gt;0&lt;/span&gt;" style="shape=partialRectangle;html=1;whiteSpace=wrap;connectable=0;fillColor=none;top=0;left=0;bottom=0;right=0;overflow=hidden;" vertex="1" parent="272">
                    <mxGeometry x="440" width="400" height="70" as="geometry">
                        <mxRectangle width="400" height="70" as="alternateBounds"/>
                    </mxGeometry>
                </mxCell>
                <mxCell id="276" value="&lt;span style=&quot;font-size: 14px;&quot;&gt;Sniff description&lt;/span&gt;" style="shape=partialRectangle;html=1;whiteSpace=wrap;connectable=0;fillColor=none;top=0;left=0;bottom=0;right=0;overflow=hidden;align=left;" vertex="1" parent="272">
                    <mxGeometry x="840" width="665" height="70" as="geometry">
                        <mxRectangle width="665" height="70" as="alternateBounds"/>
                    </mxGeometry>
                </mxCell>
                <mxCell id="285" value="" style="html=1;shadow=0;dashed=0;shape=mxgraph.atlassian.close;fillColor=#BA3200;strokeColor=none;html=1;sketch=0;fontSize=14;aspect=fixed;" vertex="1" parent="112">
                    <mxGeometry x="107" y="6.816479400749064" width="9.737827715355806" height="9.737827715355806" as="geometry"/>
                </mxCell>
                <mxCell id="286" value="" style="html=1;shadow=0;dashed=0;shape=mxgraph.atlassian.close;fillColor=#BA3200;strokeColor=none;html=1;sketch=0;fontSize=14;aspect=fixed;" vertex="1" parent="112">
                    <mxGeometry x="223" y="7.790262172284645" width="9.737827715355806" height="9.737827715355806" as="geometry"/>
                </mxCell>
                <mxCell id="290" value="" style="whiteSpace=wrap;html=1;strokeColor=#666666;fontSize=14;fillColor=#FFFFFF;" vertex="1" parent="112">
                    <mxGeometry y="740.07" width="1580" height="39.93" as="geometry"/>
                </mxCell>
                <mxCell id="291" value="&lt;font style=&quot;font-size: 17px;&quot;&gt;Ready&lt;/font&gt;" style="text;html=1;align=center;verticalAlign=middle;resizable=0;points=[];autosize=1;strokeColor=none;fillColor=none;fontSize=30;fontColor=#666666;" vertex="1" parent="112">
                    <mxGeometry x="24.860000000000127" y="731.310861423221" width="70" height="50" as="geometry"/>
                </mxCell>
                <mxCell id="292" value="&lt;font style=&quot;font-size: 17px;&quot; color=&quot;#666666&quot;&gt;File path: D:\AMAT\DSM_GT\aproc.ini&lt;/font&gt;" style="text;html=1;align=center;verticalAlign=middle;resizable=0;points=[];autosize=1;strokeColor=none;fillColor=none;fontSize=20;fontColor=#FFFFFF;" vertex="1" parent="112">
                    <mxGeometry x="1270" y="741.3086891385768" width="310" height="40" as="geometry"/>
                </mxCell>
                <mxCell id="294" value="Export" style="strokeWidth=1;shadow=0;dashed=0;align=center;html=1;shape=mxgraph.mockup.buttons.button;strokeColor=#666666;fontColor=#ffffff;mainText=;buttonStyle=round;fontSize=17;fontStyle=1;fillColor=#008cff;whiteSpace=wrap;" vertex="1" parent="112">
                    <mxGeometry x="1060" y="48.68913857677903" width="150" height="30" as="geometry"/>
                </mxCell>
                <mxCell id="67" value="" style="html=1;verticalLabelPosition=bottom;labelBackgroundColor=#ffffff;verticalAlign=top;shadow=0;dashed=0;strokeWidth=1;shape=mxgraph.ios7ui.onOffButton;buttonState=on;strokeColor=#38D145;strokeColor2=#aaaaaa;fillColor=#38D145;fillColor2=#ffffff;fontSize=30;fontColor=#666666;" parent="112" vertex="1">
                    <mxGeometry x="1280" y="57.900000000000006" width="43.5" height="20" as="geometry"/>
                </mxCell>
                <mxCell id="157" value="" style="strokeWidth=1;shadow=0;dashed=0;align=center;html=1;shape=mxgraph.mockup.forms.rrect;rSize=0;strokeColor=#999999;" parent="169" vertex="1">
                    <mxGeometry x="1" y="30" width="190" height="30" as="geometry"/>
                </mxCell>
                <mxCell id="158" value="File" style="strokeColor=inherit;fillColor=inherit;gradientColor=inherit;strokeWidth=1;shadow=0;dashed=0;align=center;html=1;shape=mxgraph.mockup.forms.rrect;rSize=0;fontSize=17;fontColor=#666666;" parent="157" vertex="1">
                    <mxGeometry width="95" height="30" as="geometry"/>
                </mxCell>
                <mxCell id="159" value="Tool" style="strokeColor=inherit;fillColor=inherit;gradientColor=inherit;strokeWidth=1;shadow=0;dashed=0;align=center;html=1;shape=mxgraph.mockup.forms.rrect;rSize=0;fontSize=17;fontColor=#666666;" parent="157" vertex="1">
                    <mxGeometry x="94.82892069171137" width="95" height="30" as="geometry"/>
                </mxCell>
                <mxCell id="277" value="" style="verticalLabelPosition=bottom;shadow=0;dashed=0;align=center;html=1;verticalAlign=top;strokeWidth=1;shape=mxgraph.mockup.navigation.scrollBar;strokeColor=#999999;barPos=100;fillColor2=#99ddff;strokeColor2=none;direction=north;" vertex="1" parent="169">
                    <mxGeometry x="1525" y="200" width="20" height="634" as="geometry"/>
                </mxCell>
                <mxCell id="307" value="" style="verticalLabelPosition=bottom;shadow=0;dashed=0;align=center;html=1;verticalAlign=top;strokeWidth=1;shape=mxgraph.mockup.graphics.simpleIcon;strokeColor=#999999;fillColor=#ffffff;fontSize=17;aspect=fixed;" vertex="1" parent="169">
                    <mxGeometry x="6" y="65" width="30" height="30" as="geometry"/>
                </mxCell>
                <mxCell id="308" value="" style="verticalLabelPosition=bottom;shadow=0;dashed=0;align=center;html=1;verticalAlign=top;strokeWidth=1;shape=mxgraph.mockup.graphics.simpleIcon;strokeColor=#999999;fillColor=#ffffff;fontSize=17;aspect=fixed;" vertex="1" parent="169">
                    <mxGeometry x="81" y="65" width="30" height="30" as="geometry"/>
                </mxCell>
                <mxCell id="309" value="" style="verticalLabelPosition=bottom;shadow=0;dashed=0;align=center;html=1;verticalAlign=top;strokeWidth=1;shape=mxgraph.mockup.graphics.simpleIcon;strokeColor=#999999;fillColor=#ffffff;fontSize=17;aspect=fixed;" vertex="1" parent="169">
                    <mxGeometry x="156" y="65" width="30" height="30" as="geometry"/>
                </mxCell>
            </root>
        </mxGraphModel>
    </diagram>
</mxfile>